<?xml version="1.0" encoding="utf-8"?>
<!-- Generator: Adobe Illustrator 25.0.0, SVG Export Plug-In . SVG Version: 6.00 Build 0)  -->
<svg version="1.1" id="Layer_1" xmlns="http://www.w3.org/2000/svg" xmlns:xlink="http://www.w3.org/1999/xlink" x="0px" y="0px"
	 viewBox="0 0 443.42 617.68" style="enable-background:new 0 0 443.42 617.68;" xml:space="preserve">
<style type="text/css">
	.st0{display:none;}
	.st1{display:inline;}
	.st2{fill:none;stroke:#5B6670;stroke-width:2;stroke-miterlimit:10;}
</style>
<g id="Layer_2_1_" class="st0">
	<g id="Layer_2-2" class="st1">
		<path id="Hand" class="st2" d="M176.75,568.57c-11.93-9.89-22.4-21.43-31.1-34.26c-6.18-9.15-12.25-22.36-24.13-48.41
			c-2.52-5.59-9.52-20.9-19.31-43.51c-12.72-29.34-12.73-30.58-17.16-38.61c-6.55-11.88-13-20.57-25.92-37.95
			C46.59,349,36.52,337.05,33.5,333.5c-9.78-11.5-19-21.43-27.19-29.8c-0.2-0.81-0.33-1.63-0.39-2.46c-0.07-2.26,0.34-4.5,1.21-6.59
			c2-4.48,6.35-6.71,7.82-7.45c10.44-5.27,25.7,0.3,33.08,3.42c8.69,3.54,16.96,8.03,24.66,13.38c8.69,6.19,17.62,15.31,35.13,33.31
			c21.18,21.78,31.78,32.68,33.44,35s4.11,4,5.9,6.22c0.32,0.46,0.79,0.81,1.32,1c1.06,0.21,2.15-0.06,3-0.73
			c1.95-1.52,1.73-5,1.68-6c-0.58-11.17,1.86-22.33,1.61-33.51c-0.27-11.93,0.25-9,0-21.38c-0.28-13.16-1-23.81-2.55-41.32
			c-1.79-20.48-2.77-29-4.2-44c-1.67-17.59-2.56-29.66-4.19-51.55c-3-40-4.76-64.3-5.6-96.48c-0.36-13.6-0.45-24.78-0.47-32.16
			c-0.04-0.93-0.02-1.86,0.08-2.79c0.18-1.58,0.55-3.12,1.1-4.61c1-2.84,2-5.69,4.56-8.42c3.04-3.45,7.57-5.21,12.14-4.72
			c2.42,0.27,4.75,1.05,6.84,2.31c2.26,1.26,4.28,2.89,6,4.82c1.64,1.85,2.99,3.94,4,6.2c1.16,2.68,1.9,5.52,2.19,8.42
			c0.95,7.12,1.35,12.35,1.73,16.75c0.42,4.88,0.56,4.81,1.32,12c1,9.6,2,22.65,2,22.65c0,6.7,1.29,13.43,2.92,26.94
			C189.05,184.8,200,233.32,200,233.32c2,9,5,21.62,9,36.66c0.18,0.66,0.44,1.29,0.77,1.89c0.91,1.55,2.28,2.78,3.92,3.52
			c1.26,0.59,3.62,1.7,6,0.61c3.12-1.41,3.59-5.27,3.62-5.5s0.08-1.2,0.15-2.3c0.86-13.61,0.84-24.64,0.78-29.37
			c0-1.23,0-2.1,0-2.25c-0.16-9.59,2.17-67.75,8.9-210.38c0.06-0.95,0.22-1.89,0.48-2.81c0.83-2.76,2.46-5.22,4.68-7.06
			c3.56-2.99,8.14-4.51,12.78-4.23c7.39,0.7,11.53,6.2,12.65,7.7c2.59,3.65,4.04,7.98,4.18,12.45c0.73,11.67,6.11,109,13.13,242.75
			c0.61,0.56,1.3,1.04,2.05,1.41c0.52,0.25,4,1.86,7.24,0c1.43-0.84,2.54-2.13,3.16-3.67c0.3-0.77,0.57-1.55,0.78-2.35
			c0.46-1.63,0.75-3.31,0.85-5c0.2-2.76,12.44-84.13,31.31-208.71c-0.06-1.36,0.01-2.72,0.22-4.07c0.49-3.07,1.64-6.01,3.35-8.61
			c1.55-2.45,4.48-7.08,10.25-9.26c1.24-0.47,9.38-3.54,15.82,1.58c4.87,3.88,5.47,9.83,5.57,11.07c0.08,0.83,0.15,1.66,0.22,2.49
			c0,0,0.13,1.45,0.22,2.68s0.5,13.52,0.45,16.12c-0.13,7-6,87.72-14.71,198.18c-0.13,2.33-0.13,4.67,0,7
			c0.27,4.67,0.43,7,2.05,8.93c1.18,1.34,2.79,2.24,4.55,2.53c1.91,0.21,3.83-0.27,5.43-1.34c2.36-1.55,4.12-3.86,5-6.55
			c2.19-5.8,23.34-63.58,52.16-143c0.47-1.12,1.08-2.18,1.83-3.14c2.4-2.8,5.68-4.71,9.3-5.41l0,0c4.71,0.2,9.31,1.55,13.39,3.92
			c7.41,4.37-34.07,150.65-38.11,164.85c-0.77,1.57-1.36,3.22-1.78,4.92c-0.37,1.47-0.6,2.98-0.68,4.49c-0.3,4.38-0.91,8.74-1,13.13
			c-0.23,9.24-3,28.86-5.1,47c-1.9,16.07-1.72,17.29-4.31,42.79c-4.89,48.13-7.33,72.2-11.07,90.25
			c-4.25,20.41-10.15,40.44-17.64,59.9c-0.67,1.38-1.35,2.77-2.05,4.16c-0.12,1.16-0.28,2.89-0.41,5c-0.3,5-0.3,10,0,15
			c0.49,8.76,0.39,20.68,0,22.88c-2.38,13.58-79.36,16-181.59,7.7c0.2-1.87,0.43-4.43,0.59-7.47c0.14-2.61,0.17-4.53,0.2-7.13
			c0.06-4,0-6.93,0-9.71c-0.1-10-0.36-9.42-0.51-13.73c-0.01-0.76-0.08-1.52-0.23-2.26c-0.11-0.42-0.2-0.84-0.27-1.26
			c0-0.44-0.09-0.87-0.28-1.26C177.15,568.85,176.96,568.69,176.75,568.57z"/>
	</g>
</g>
<g id="default">
	<path id="Thumb_Nail" class="st2" d="M25.42,323.1L2.2,299.59C1.5,298.9,1.08,297.98,1,297c-0.07-1.01,0.04-2.03,0.33-3
		c1.95-6.44,11.85-9,18.78-8.5c8.3,0.57,14.09,5.55,17.82,8.75c3.19,2.75,5.97,5.94,8.27,9.47c0.87,1.32,0.91,3.02,0.1,4.38l0,0
		c-3.99,6.45-9.52,11.82-16.08,15.62C28.67,324.65,26.68,324.39,25.42,323.1z"/>
	<path id="Index" class="st2" d="M143.33,31.51c-1.04,1.74-1.61,3.72-1.66,5.74c-0.58,7-1,12.85,1.1,22
		c0.8,3.47,1.22,5.23,2.22,6.22c4.57,4.59,15.5,2.44,21.16,0.93c1.94-0.52,3.35-2.2,3.51-4.2c0.09-1,0.16-2.18,0.21-3.42
		c0.21-5.57,0.42-13.44-3.16-22c-1.78-4.23-3.12-7.29-6.81-9.23c-3.07-1.63-6.64-2.05-10-1.18C147.14,27.2,144.8,29.03,143.33,31.51
		z"/>
	<path id="Middle" class="st2" d="M239.88,6.08c-1.23,1.79-2.01,3.85-2.29,6c-1.36,7.47-2.44,13.75-1.36,23.84
		c0.4,3.82,0.62,5.75,1.5,6.93c4,5.41,15.14,4.23,21,3.19c2.07-0.42,3.66-2.08,4-4.16c0.2-1.11,0.4-2.34,0.59-3.68
		c0.83-6,1.92-14.45-0.68-24c-1.29-4.75-2.29-8.18-5.74-10.67c-2.85-2.08-6.42-2.91-9.9-2.3C244.1,1.89,241.56,3.62,239.88,6.08z"/>
	<path id="Ring" class="st2" d="M337.78,31c-1.41,1.45-2.42,3.24-2.94,5.2c-2.17,6.66-3.94,12.27-4,21.66c0,3.56,0,5.36,0.71,6.56
		c3.39,5.51,14.52,5.95,20.38,5.79c2-0.05,3.76-1.36,4.38-3.27c0.32-1,0.66-2.09,1-3.29c1.48-5.36,3.51-13,2-22.11
		C358.56,37,358,33.71,354.81,31c-2.61-2.29-5.98-3.52-9.45-3.45C342.49,27.71,339.79,28.94,337.78,31z"/>
	<path id="Pinky" class="st2" d="M427.89,118.75c-1.29,0.92-2.32,2.14-3,3.57c-2.61,4.78-4.76,8.82-6.2,16
		c-0.55,2.71-0.82,4.09-0.45,5.1c1.71,4.67,9.94,6.51,14.33,7.18c1.53,0.22,3.03-0.54,3.76-1.9c0.38-0.71,0.8-1.5,1.22-2.37
		c1.91-3.89,4.55-9.42,4.78-16.58c0.12-3.56,0.16-6.14-1.78-8.66c-1.59-2.1-3.93-3.5-6.53-3.92
		C431.85,116.92,429.67,117.48,427.89,118.75z"/>
</g>
</svg>
